<?xml version="1.0" encoding="utf-8"?>
<!-- Generator: Adobe Illustrator 23.0.2, SVG Export Plug-In . SVG Version: 6.00 Build 0)  -->
<svg version="1.1" id="Layer_1" xmlns="http://www.w3.org/2000/svg" xmlns:xlink="http://www.w3.org/1999/xlink" x="0px" y="0px"
	 viewBox="0 0 88 88" style="enable-background:new 0 0 88 88;" xml:space="preserve">
<style type="text/css">
	.st0{fill:#FFFFFF;}
	.st1{fill:none;}
	.st2{fill:#1E306E;}
</style>
<g>
	<path class="st0" d="M58,54.9c-2.3,1.1-9.1,5.1-8.7,13.7L49,69.1l-4-9.8l0.9-2.1c0.2-0.2,0.4-0.3,0.5-0.4c0.5-0.4,1-0.8,1.3-0.9
		c0.4-0.1,1,0.1,1.6,0.3c0.9,0.3,2,0.6,2.9,0.2c1-0.4,1.5-1.3,2-2.2c0.3-0.5,0.6-1.1,0.9-1.3c0.3-0.2,1-0.2,1.6-0.3
		c0.2,0,0.4,0,0.5-0.1L58,54.9z"/>
	<g>
		<ellipse class="st0" cx="43.8" cy="36.1" rx="13.4" ry="13.4"/>
	</g>
	<g>
		<polygon class="st1" points="44.5,56.1 44.3,56.3 44.4,56 		"/>
		<path class="st1" d="M49.2,35.9c0,1.8-0.2,6.1-2.5,6.1c-1.5,0-2.5-2.3-2.5-6s1-6.1,2.6-6.1C48.9,29.9,49.2,34.1,49.2,35.9z"/>
		<path class="st1" d="M43.8,22.7c-7.4,0-13.4,6-13.4,13.4s6,13.4,13.4,13.4s13.4-6,13.4-13.4C57.2,28.7,51.2,22.7,43.8,22.7z
			 M38.6,43.4h-1.8V28.6h1.8V43.4z M46.6,43.9c-2.7,0-4.3-2.9-4.3-7.8c0-5.9,2.3-8,4.4-8c0.9,0,2.1,0.3,3,1.7c0,0,0.1,0,0.1,0.1
			c0.4,0.6,0.7,1.3,0.9,2.4v0.1c0.2,1,0.4,2.2,0.4,3.6C51,42.8,48.3,43.9,46.6,43.9z M43.8,22.7c-7.4,0-13.4,6-13.4,13.4
			s6,13.4,13.4,13.4s13.4-6,13.4-13.4C57.2,28.7,51.2,22.7,43.8,22.7z M38.6,43.4h-1.8V28.6h1.8V43.4z M46.6,43.9
			c-2.7,0-4.3-2.9-4.3-7.8c0-5.9,2.3-8,4.4-8c0.9,0,2.1,0.3,3,1.7c0,0,0.1,0,0.1,0.1c0.4,0.6,0.7,1.3,0.9,2.4v0.1
			c0.2,1,0.4,2.2,0.4,3.6C51,42.8,48.3,43.9,46.6,43.9z M43.8,22.7c-7.4,0-13.4,6-13.4,13.4s6,13.4,13.4,13.4s13.4-6,13.4-13.4
			C57.2,28.7,51.2,22.7,43.8,22.7z M38.6,43.4h-1.8V28.6h1.8V43.4z M46.6,43.9c-2.7,0-4.3-2.9-4.3-7.8c0-5.9,2.3-8,4.4-8
			c0.9,0,2.1,0.3,3,1.7c0,0,0.1,0,0.1,0.1c0.4,0.6,0.7,1.3,0.9,2.4v0.1c0.2,1,0.4,2.2,0.4,3.6C51,42.8,48.3,43.9,46.6,43.9z
			 M43.8,22.7c-7.4,0-13.4,6-13.4,13.4s6,13.4,13.4,13.4s13.4-6,13.4-13.4C57.2,28.7,51.2,22.7,43.8,22.7z M38.6,43.4h-1.8V28.6h1.8
			V43.4z M46.6,43.9c-2.7,0-4.3-2.9-4.3-7.8c0-5.9,2.3-8,4.4-8c0.9,0,2.1,0.3,3,1.7c0,0,0.1,0,0.1,0.1c0.4,0.6,0.7,1.3,0.9,2.4v0.1
			c0.2,1,0.4,2.2,0.4,3.6C51,42.8,48.3,43.9,46.6,43.9z M63,37.6c0.4-0.5,0.9-1.1,0.9-1.5s-0.5-1-0.9-1.5c-0.5-0.6-1-1.3-1.2-2
			c-0.2-0.8,0.1-1.7,0.3-2.5c0.2-0.6,0.4-1.3,0.3-1.6c-0.2-0.4-0.8-0.7-1.3-1c-0.7-0.4-1.5-0.8-2-1.5c-0.4-0.7-0.5-1.6-0.6-2.4
			c-0.1-0.7-0.2-1.4-0.4-1.7c-0.2-0.2-1-0.3-1.6-0.4c-0.9-0.1-1.7-0.2-2.4-0.7c-0.7-0.4-1.1-1.2-1.5-1.9c-0.3-0.6-0.7-1.2-1-1.4
			c-0.3-0.1-1,0.1-1.6,0.2c-0.8,0.2-1.7,0.5-2.5,0.3c-0.8-0.1-1.5-0.7-2.1-1.2c-0.5-0.4-1.1-0.9-1.5-0.9s-0.9,0.4-1.5,0.9
			c-0.7,0.5-1.3,1-2.1,1.2s-1.7-0.1-2.5-0.3c-0.6-0.2-1.3-0.4-1.6-0.2c-0.4,0.1-0.7,0.8-1,1.3c-0.4,0.7-0.8,1.5-1.5,2
			s-1.6,0.6-2.4,0.6c-0.7,0.1-1.4,0.1-1.7,0.4c-0.2,0.3-0.3,1-0.4,1.6c-0.1,0.8-0.2,1.7-0.7,2.4c-0.4,0.7-1.2,1.1-1.9,1.5
			c-0.6,0.3-1.3,0.7-1.4,1s0.1,1,0.2,1.6c0.2,0.8,0.5,1.7,0.3,2.5c-0.1,0.8-0.7,1.4-1.2,2.1c-0.4,0.5-0.9,1.1-0.9,1.5
			s0.5,0.9,0.9,1.5c0.5,0.6,1.1,1.3,1.2,2.1c0.2,0.8-0.1,1.7-0.3,2.5c-0.2,0.6-0.4,1.3-0.2,1.6c0.1,0.4,0.7,0.7,1.3,1
			c0.7,0.4,1.5,0.8,2,1.5s0.6,1.6,0.6,2.4c0.1,0.7,0.1,1.4,0.4,1.7c0.3,0.2,1,0.3,1.6,0.4c0.8,0.1,1.7,0.2,2.4,0.7
			c0.7,0.4,1.1,1.2,1.5,1.9c0.3,0.6,0.7,1.2,1,1.4c0.3,0.1,1-0.1,1.6-0.2c0.6-0.2,1.3-0.4,1.9-0.4c0.2,0,0.4,0,0.6,0.1
			c0.8,0.1,1.4,0.7,2.1,1.2c0.6,0.4,1.1,0.9,1.5,0.9c0.2,0,0.4-0.1,0.7-0.3l0,0c0.2-0.2,0.5-0.4,0.8-0.6c0.6-0.5,1.3-1.1,2.1-1.2
			c0.8-0.2,1.7,0.1,2.5,0.3c0.6,0.2,1.3,0.4,1.6,0.2c0.4-0.1,0.7-0.7,1-1.3c0.4-0.7,0.8-1.5,1.5-2s1.6-0.6,2.4-0.6
			c0.7-0.1,1.4-0.1,1.7-0.4c0.3-0.3,0.3-1,0.4-1.6c0.1-0.8,0.2-1.7,0.6-2.4c0.4-0.7,1.2-1.1,1.9-1.5c0.6-0.3,1.2-0.7,1.4-1
			c0.1-0.3-0.1-1-0.3-1.6c-0.2-0.8-0.5-1.7-0.3-2.5C62,38.9,62.5,38.2,63,37.6z M43.8,51.3c-8.4,0-15.2-6.8-15.2-15.2
			c0-7.8,5.9-14.2,13.4-15.1c0.6-0.1,1.2-0.1,1.8-0.1c8.4,0,15.2,6.8,15.2,15.2S52.2,51.3,43.8,51.3z M43.8,22.7
			c-7.4,0-13.4,6-13.4,13.4s6,13.4,13.4,13.4s13.4-6,13.4-13.4C57.2,28.7,51.2,22.7,43.8,22.7z M38.6,43.4h-1.8V28.6h1.8V43.4z
			 M46.6,43.9c-2.7,0-4.3-2.9-4.3-7.8c0-5.9,2.3-8,4.4-8c0.9,0,2.1,0.3,3,1.7c0,0,0.1,0,0.1,0.1c0.4,0.6,0.7,1.3,0.9,2.4v0.1
			c0.2,1,0.4,2.2,0.4,3.6C51,42.8,48.3,43.9,46.6,43.9z M43.8,22.7c-7.4,0-13.4,6-13.4,13.4s6,13.4,13.4,13.4s13.4-6,13.4-13.4
			C57.2,28.7,51.2,22.7,43.8,22.7z M38.6,43.4h-1.8V28.6h1.8V43.4z M46.6,43.9c-2.7,0-4.3-2.9-4.3-7.8c0-5.9,2.3-8,4.4-8
			c0.9,0,2.1,0.3,3,1.7c0,0,0.1,0,0.1,0.1c0.4,0.6,0.7,1.3,0.9,2.4v0.1c0.2,1,0.4,2.2,0.4,3.6C51,42.8,48.3,43.9,46.6,43.9z
			 M43.8,22.7c-7.4,0-13.4,6-13.4,13.4s6,13.4,13.4,13.4s13.4-6,13.4-13.4C57.2,28.7,51.2,22.7,43.8,22.7z M38.6,43.4h-1.8V28.6h1.8
			V43.4z M46.6,43.9c-2.7,0-4.3-2.9-4.3-7.8c0-5.9,2.3-8,4.4-8c0.9,0,2.1,0.3,3,1.7c0,0,0.1,0,0.1,0.1c0.4,0.6,0.7,1.3,0.9,2.4v0.1
			c0.2,1,0.4,2.2,0.4,3.6C51,42.8,48.3,43.9,46.6,43.9z"/>
		<path class="st1" d="M42.5,57.7c-0.1-0.1-0.3-0.1-0.4-0.2c-0.4-0.2-0.7-0.5-1.1-0.8c-0.4-0.4-0.9-0.7-1.3-0.8h-0.1h-0.1
			c-0.4,0-0.9,0.2-1.4,0.3c-0.6,0.2-1.2,0.4-1.8,0.4c-0.1,0-0.1,0-0.2,0c-0.3,0-0.6-0.1-0.8-0.2c-1-0.4-1.5-1.4-2-2.2
			c-0.3-0.5-0.6-1.1-0.9-1.3c-0.2-0.2-0.6-0.2-1-0.3c-0.1,0-0.2,0-0.4,0h0L26.4,64h0.1l8.4-2l0,0l4.2,7v-0.1L43.5,58
			C43.2,58,42.8,57.8,42.5,57.7z M42.5,57.7c-0.1-0.1-0.3-0.1-0.4-0.2c-0.4-0.2-0.7-0.5-1.1-0.8c-0.4-0.4-0.9-0.7-1.3-0.8h-0.1h-0.1
			c-0.4,0-0.9,0.2-1.4,0.3c-0.6,0.2-1.2,0.4-1.8,0.4c-0.1,0-0.1,0-0.2,0c-0.3,0-0.6-0.1-0.8-0.2c-1-0.4-1.5-1.4-2-2.2
			c-0.3-0.5-0.6-1.1-0.9-1.3c-0.2-0.2-0.6-0.2-1-0.3c-0.1,0-0.2,0-0.4,0h0L26.4,64h0.1l8.4-2l0,0l4.2,7v-0.1L43.5,58
			C43.2,58,42.8,57.8,42.5,57.7z M42.5,57.7c-0.1-0.1-0.3-0.1-0.4-0.2c-0.4-0.2-0.7-0.5-1.1-0.8c-0.4-0.4-0.9-0.7-1.3-0.8h-0.1h-0.1
			c-0.4,0-0.9,0.2-1.4,0.3c-0.6,0.2-1.2,0.4-1.8,0.4c-0.1,0-0.1,0-0.2,0c-0.3,0-0.6-0.1-0.8-0.2c-1-0.4-1.5-1.4-2-2.2
			c-0.3-0.5-0.6-1.1-0.9-1.3c-0.2-0.2-0.6-0.2-1-0.3c-0.1,0-0.2,0-0.4,0h0L26.4,64h0.1l8.4-2l0,0l4.2,7v-0.1L43.5,58
			C43.2,58,42.8,57.8,42.5,57.7z M58,54.9l-0.9-2.4c-0.2,0-0.4,0-0.5,0.1c-0.6,0.1-1.2,0.1-1.6,0.3c-0.3,0.2-0.6,0.8-0.9,1.3
			c-0.4,0.9-1,1.8-2,2.2c-0.9,0.4-2,0.1-2.9-0.2c-0.6-0.2-1.2-0.4-1.6-0.3c-0.4,0.1-0.9,0.5-1.3,0.9c-0.2,0.1-0.3,0.3-0.5,0.4
			l-0.9,2.1l4,9.8l0.3-0.5L53,62l8.5,1.9L58,54.9z M58,54.9l-0.9-2.4c-0.2,0-0.4,0-0.5,0.1c-0.6,0.1-1.2,0.1-1.6,0.3
			c-0.3,0.2-0.6,0.8-0.9,1.3c-0.4,0.9-1,1.8-2,2.2c-0.9,0.4-2,0.1-2.9-0.2c-0.6-0.2-1.2-0.4-1.6-0.3c-0.4,0.1-0.9,0.5-1.3,0.9
			c-0.2,0.1-0.3,0.3-0.5,0.4l-0.9,2.1l4,9.8l0.3-0.5L53,62l8.5,1.9L58,54.9z M42.5,57.7c-0.1-0.1-0.3-0.1-0.4-0.2
			c-0.4-0.2-0.7-0.5-1.1-0.8c-0.4-0.4-0.9-0.7-1.3-0.8h-0.1h-0.1c-0.4,0-0.9,0.2-1.4,0.3c-0.6,0.2-1.2,0.4-1.8,0.4
			c-0.1,0-0.1,0-0.2,0c-0.3,0-0.6-0.1-0.8-0.2c-1-0.4-1.5-1.4-2-2.2c-0.3-0.5-0.6-1.1-0.9-1.3c-0.2-0.2-0.6-0.2-1-0.3
			c-0.1,0-0.2,0-0.4,0h0L26.4,64h0.1l8.4-2l0,0l4.2,7v-0.1L43.5,58C43.2,58,42.8,57.8,42.5,57.7z M42.5,57.7
			c-0.1-0.1-0.3-0.1-0.4-0.2c-0.4-0.2-0.7-0.5-1.1-0.8c-0.4-0.4-0.9-0.7-1.3-0.8h-0.1h-0.1c-0.4,0-0.9,0.2-1.4,0.3
			c-0.6,0.2-1.2,0.4-1.8,0.4c-0.1,0-0.1,0-0.2,0c-0.3,0-0.6-0.1-0.8-0.2c-1-0.4-1.5-1.4-2-2.2c-0.3-0.5-0.6-1.1-0.9-1.3
			c-0.2-0.2-0.6-0.2-1-0.3c-0.1,0-0.2,0-0.4,0h0L26.4,64h0.1l8.4-2l0,0l4.2,7v-0.1L43.5,58C43.2,58,42.8,57.8,42.5,57.7z M58,54.9
			l-0.9-2.4c-0.2,0-0.4,0-0.5,0.1c-0.6,0.1-1.2,0.1-1.6,0.3c-0.3,0.2-0.6,0.8-0.9,1.3c-0.4,0.9-1,1.8-2,2.2c-0.9,0.4-2,0.1-2.9-0.2
			c-0.6-0.2-1.2-0.4-1.6-0.3c-0.4,0.1-0.9,0.5-1.3,0.9c-0.2,0.1-0.3,0.3-0.5,0.4l-0.9,2.1l4,9.8l0.3-0.5L53,62l8.5,1.9L58,54.9z
			 M58,54.9l-0.9-2.4c-0.2,0-0.4,0-0.5,0.1c-0.6,0.1-1.2,0.1-1.6,0.3c-0.3,0.2-0.6,0.8-0.9,1.3c-0.4,0.9-1,1.8-2,2.2
			c-0.9,0.4-2,0.1-2.9-0.2c-0.6-0.2-1.2-0.4-1.6-0.3c-0.4,0.1-0.9,0.5-1.3,0.9c-0.2,0.1-0.3,0.3-0.5,0.4l-0.9,2.1l4,9.8l0.3-0.5
			L53,62l8.5,1.9L58,54.9z M42.5,57.7c-0.1-0.1-0.3-0.1-0.4-0.2c-0.4-0.2-0.7-0.5-1.1-0.8c-0.4-0.4-0.9-0.7-1.3-0.8h-0.1h-0.1
			c-0.4,0-0.9,0.2-1.4,0.3c-0.6,0.2-1.2,0.4-1.8,0.4c-0.1,0-0.1,0-0.2,0c-0.3,0-0.6-0.1-0.8-0.2c-1-0.4-1.5-1.4-2-2.2
			c-0.3-0.5-0.6-1.1-0.9-1.3c-0.2-0.2-0.6-0.2-1-0.3c-0.1,0-0.2,0-0.4,0h0L26.4,64h0.1l8.4-2l0,0l4.2,7v-0.1L43.5,58
			C43.2,58,42.8,57.8,42.5,57.7z M42.5,57.7c-0.1-0.1-0.3-0.1-0.4-0.2c-0.4-0.2-0.7-0.5-1.1-0.8c-0.4-0.4-0.9-0.7-1.3-0.8h-0.1h-0.1
			c-0.4,0-0.9,0.2-1.4,0.3c-0.6,0.2-1.2,0.4-1.8,0.4c-0.1,0-0.1,0-0.2,0c-0.3,0-0.6-0.1-0.8-0.2c-1-0.4-1.5-1.4-2-2.2
			c-0.3-0.5-0.6-1.1-0.9-1.3c-0.2-0.2-0.6-0.2-1-0.3c-0.1,0-0.2,0-0.4,0h0L26.4,64h0.1l8.4-2l0,0l4.2,7v-0.1L43.5,58
			C43.2,58,42.8,57.8,42.5,57.7z M58,54.9l-0.9-2.4c-0.2,0-0.4,0-0.5,0.1c-0.6,0.1-1.2,0.1-1.6,0.3c-0.3,0.2-0.6,0.8-0.9,1.3
			c-0.4,0.9-1,1.8-2,2.2c-0.9,0.4-2,0.1-2.9-0.2c-0.6-0.2-1.2-0.4-1.6-0.3c-0.4,0.1-0.9,0.5-1.3,0.9c-0.2,0.1-0.3,0.3-0.5,0.4
			l-0.9,2.1l4,9.8l0.3-0.5L53,62l8.5,1.9L58,54.9z M58,54.9l-0.9-2.4c-0.2,0-0.4,0-0.5,0.1c-0.6,0.1-1.2,0.1-1.6,0.3
			c-0.3,0.2-0.6,0.8-0.9,1.3c-0.4,0.9-1,1.8-2,2.2c-0.9,0.4-2,0.1-2.9-0.2c-0.6-0.2-1.2-0.4-1.6-0.3c-0.4,0.1-0.9,0.5-1.3,0.9
			c-0.2,0.1-0.3,0.3-0.5,0.4l-0.9,2.1l4,9.8l0.3-0.5L53,62l8.5,1.9L58,54.9z M43.6,58C43.6,58,43.5,58,43.6,58c-0.4,0-0.7-0.2-1-0.3
			c-0.1-0.1-0.3-0.1-0.4-0.2c-0.4-0.2-0.7-0.5-1-0.8c-0.4-0.4-0.9-0.7-1.3-0.8c-0.1,0-0.1,0-0.2,0h-0.1c-0.4,0-0.8,0.2-1.3,0.3
			c-0.6,0.2-1.3,0.4-1.9,0.4c-0.1,0-0.1,0-0.2,0c-0.2,0-0.5-0.1-0.7-0.2c-1-0.4-1.5-1.4-2-2.2c-0.3-0.5-0.6-1.1-0.9-1.3
			c-0.2-0.2-0.7-0.3-1.1-0.3c-0.1,0-0.2,0-0.4,0L26.5,64l0,0l8.4-2H35l4.1,6.9l0.1,0.1L43.6,58L43.6,58L43.6,58z M43.6,58
			C43.6,58,43.5,58,43.6,58c-0.4,0-0.7-0.2-1-0.3c-0.1-0.1-0.3-0.1-0.4-0.2c-0.4-0.2-0.7-0.5-1-0.8c-0.4-0.4-0.9-0.7-1.3-0.8
			c-0.1,0-0.1,0-0.2,0h-0.1c-0.4,0-0.9,0.2-1.4,0.3c-0.6,0.2-1.2,0.4-1.8,0.4c-0.1,0-0.1,0-0.2,0c-0.2,0-0.5-0.1-0.7-0.2
			c-1-0.4-1.5-1.4-2-2.2c-0.3-0.5-0.6-1.1-0.9-1.3c-0.2-0.2-0.7-0.3-1.1-0.3c-0.1,0-0.2,0-0.4,0H31L26.4,64h0.1l0,0l8.4-2l4.2,7
			v-0.1l0.1,0.1L43.6,58L43.6,58L43.6,58z M58,54.9l-0.9-2.4c-0.2,0-0.4,0-0.5,0.1c-0.6,0.1-1.2,0.1-1.6,0.3
			c-0.3,0.2-0.6,0.8-0.9,1.3c-0.4,0.9-1,1.8-2,2.2c-0.9,0.4-2,0.1-2.9-0.2c-0.6-0.2-1.2-0.4-1.6-0.3c-0.4,0.1-0.9,0.5-1.3,0.9
			c-0.2,0.1-0.3,0.3-0.5,0.4l-0.9,2.1l4,9.8l0.3-0.5L53,62l8.5,1.9L58,54.9z M58,54.9l-0.9-2.4c-0.2,0-0.4,0-0.5,0.1
			c-0.6,0.1-1.2,0.1-1.6,0.3c-0.3,0.2-0.6,0.8-0.9,1.3c-0.4,0.9-1,1.8-2,2.2c-0.9,0.4-2,0.1-2.9-0.2c-0.6-0.2-1.2-0.4-1.6-0.3
			c-0.4,0.1-0.9,0.5-1.3,0.9c-0.2,0.1-0.3,0.3-0.5,0.4l-0.9,2.1l4,9.8l0.3-0.5L53,62l8.5,1.9L58,54.9z M43.5,58
			c-0.3,0-0.7-0.2-1-0.3c-0.1-0.1-0.3-0.1-0.4-0.2c-0.4-0.2-0.7-0.5-1-0.8c-0.4-0.4-0.9-0.7-1.3-0.8c-0.1,0-0.1,0-0.2,0h-0.1
			c-0.4,0-0.9,0.2-1.4,0.3c-0.6,0.2-1.2,0.4-1.8,0.4c-0.1,0-0.1,0-0.2,0c-0.2,0-0.5-0.1-0.7-0.2c-1-0.4-1.5-1.4-2-2.2
			c-0.3-0.5-0.6-1.1-0.9-1.3c-0.2-0.2-0.7-0.3-1.1-0.3c-0.1,0-0.2,0-0.4,0h0L26.4,64h0.1l0,0l8.4-2l4.2,7v-0.1l0.1,0.1L43.5,58
			L43.5,58L43.5,58C43.6,58,43.5,58,43.5,58z M0,0v88h88V0H0z M64.5,38.8c-0.4,0.4-0.8,0.9-0.8,1.2c-0.1,0.4,0.1,1,0.3,1.6
			c0.3,0.9,0.6,1.9,0.2,2.8c-0.4,1-1.4,1.5-2.2,2c-0.5,0.3-1,0.6-1.2,0.9s-0.3,1-0.4,1.6c-0.1,0.9-0.2,2-0.9,2.8
			c-0.2,0.2-0.4,0.3-0.6,0.4l4.7,11.6c0.2,0.5,0.1,1.1-0.2,1.6c-0.3,0.4-0.9,0.7-1.5,0.6L54.1,64l-3.7,6.3c-0.3,0.5-0.8,0.8-1.3,0.8
			c-0.7,0-1.2-0.4-1.5-1l-3.4-8.4l-3.4,8.5c-0.2,0.6-0.8,1-1.4,1c-0.6,0-1.1-0.4-1.3-0.7l-3.8-6.4l-7.6,1.7
			c-0.6,0.1-1.1-0.1-1.5-0.5c-0.5-0.5-0.6-1.2-0.2-1.8l4.6-11.3c-0.4-0.1-0.7-0.3-1-0.6c-0.7-0.8-0.9-1.8-0.9-2.8
			c-0.1-0.6-0.1-1.2-0.3-1.6c-0.2-0.3-0.8-0.6-1.3-0.9c-0.9-0.5-1.8-1-2.2-2c-0.4-0.9-0.1-2,0.2-2.9c0.2-0.6,0.4-1.2,0.3-1.6
			c-0.1-0.4-0.5-0.9-0.9-1.3c-0.6-0.7-1.3-1.6-1.3-2.6c0-1.1,0.7-1.9,1.3-2.7c0.4-0.4,0.7-0.9,0.8-1.3c0.1-0.4-0.1-1-0.3-1.6
			c-0.3-0.9-0.6-1.9-0.2-2.8c0.4-1,1.4-1.5,2.2-2c0.5-0.3,1.1-0.6,1.3-0.9c0.2-0.3,0.3-1,0.3-1.6c0.1-0.9,0.2-2,0.9-2.8
			c0.8-0.7,1.8-0.9,2.8-0.9c0.6-0.1,1.2-0.1,1.6-0.3c0.3-0.2,0.6-0.8,0.9-1.3c0.4-0.9,0.9-1.8,1.9-2.2c0.9-0.4,2-0.1,2.9,0.2
			c0.6,0.2,1.2,0.4,1.6,0.3c0.4-0.1,0.9-0.5,1.3-0.9c0.7-0.6,1.6-1.3,2.6-1.3s1.9,0.7,2.6,1.3c0.4,0.4,0.9,0.8,1.3,0.9
			c0.4,0.1,1-0.1,1.6-0.3c0.9-0.2,1.9-0.6,2.9-0.2s1.5,1.4,1.9,2.2c0.3,0.5,0.6,1.1,0.9,1.3s1,0.3,1.6,0.4c0.9,0.1,2,0.2,2.8,0.9
			c0.7,0.8,0.9,1.8,1,2.8c0.1,0.6,0.1,1.2,0.3,1.6c0.2,0.3,0.7,0.6,1.3,0.9c0.9,0.4,1.8,0.9,2.2,1.9c0.4,0.9,0.1,2-0.2,2.9
			C64.1,31,63.9,31.6,64,32c0.1,0.3,0.4,0.8,0.8,1.3c0.6,0.7,1.3,1.6,1.3,2.7C65.8,37.2,65.1,38,64.5,38.8z M57.1,52.5
			c-0.2,0-0.4,0-0.5,0.1c-0.6,0.1-1.2,0.1-1.6,0.3c-0.3,0.2-0.6,0.8-0.9,1.3c-0.4,0.9-1,1.8-2,2.2c-0.9,0.4-2,0.1-2.9-0.2
			c-0.6-0.2-1.2-0.4-1.6-0.3c-0.4,0.1-0.9,0.5-1.3,0.9c-0.2,0.1-0.3,0.3-0.5,0.4l-0.9,2.1l4,9.8l0.3-0.5L53,62l8.5,1.9l-3.5-9
			L57.1,52.5z M43.5,58c-0.3,0-0.7-0.2-1-0.3c-0.1-0.1-0.3-0.1-0.4-0.2c-0.4-0.2-0.7-0.5-1-0.8c-0.4-0.4-0.9-0.7-1.3-0.8
			c-0.1,0-0.1,0-0.2,0h-0.1c-0.4,0-0.9,0.2-1.4,0.3c-0.6,0.2-1.2,0.4-1.8,0.4c-0.1,0-0.1,0-0.2,0c-0.2,0-0.5-0.1-0.7-0.2
			c-1-0.4-1.5-1.4-2-2.2c-0.3-0.5-0.6-1.1-0.9-1.3c-0.2-0.2-0.7-0.3-1.1-0.3c-0.1,0-0.2,0-0.4,0h0L26.4,64h0.1l0,0l8.4-2l4.2,7v-0.1
			l0.1,0.1L43.5,58L43.5,58L43.5,58C43.6,58,43.5,58,43.5,58z M43.6,58C43.6,58,43.5,58,43.6,58c-0.4,0-0.7-0.2-1-0.3
			c-0.1-0.1-0.3-0.1-0.4-0.2c-0.4-0.2-0.7-0.5-1-0.8c-0.4-0.4-0.9-0.7-1.3-0.8c-0.1,0-0.1,0-0.2,0h-0.1c-0.4,0-0.9,0.2-1.4,0.3
			c-0.6,0.2-1.2,0.4-1.8,0.4c-0.1,0-0.1,0-0.2,0c-0.2,0-0.5-0.1-0.7-0.2c-1-0.4-1.5-1.4-2-2.2c-0.3-0.5-0.6-1.1-0.9-1.3
			c-0.2-0.2-0.7-0.3-1.1-0.3c-0.1,0-0.2,0-0.4,0H31L26.4,64h0.1l0,0l8.4-2l4.2,7v-0.1l0.1,0.1L43.6,58L43.6,58L43.6,58z M58,54.9
			l-0.9-2.4c-0.2,0-0.4,0-0.5,0.1c-0.6,0.1-1.2,0.1-1.6,0.3c-0.3,0.2-0.6,0.8-0.9,1.3c-0.4,0.9-1,1.8-2,2.2c-0.9,0.4-2,0.1-2.9-0.2
			c-0.6-0.2-1.2-0.4-1.6-0.3c-0.4,0.1-0.9,0.5-1.3,0.9c-0.2,0.1-0.3,0.3-0.5,0.4l-0.9,2.1l4,9.8l0.3-0.5L53,62l8.5,1.9L58,54.9z
			 M57.9,54.9l-0.8-2.4c-0.2,0-0.4,0-0.5,0.1c-0.6,0.1-1.2,0.1-1.6,0.3c-0.3,0.2-0.6,0.8-0.9,1.3c-0.4,0.9-1,1.8-2,2.2
			c-0.9,0.4-2,0.1-2.9-0.2c-0.6-0.2-1.2-0.4-1.6-0.3c-0.4,0.1-0.9,0.5-1.3,0.9c-0.2,0.1-0.3,0.3-0.5,0.4l-0.9,2.1l4,9.8l0.3-0.5
			L53,62l8.5,1.9L57.9,54.9z M43.6,58C43.6,58,43.5,58,43.6,58c-0.4,0-0.7-0.2-1-0.3c-0.1-0.1-0.3-0.1-0.4-0.2
			c-0.4-0.2-0.7-0.5-1-0.8c-0.4-0.4-0.9-0.7-1.3-0.8c-0.1,0-0.1,0-0.2,0h-0.1c-0.4,0-0.8,0.2-1.3,0.3c-0.6,0.2-1.3,0.4-1.9,0.4
			c-0.1,0-0.1,0-0.2,0c-0.2,0-0.5-0.1-0.7-0.2c-1-0.4-1.5-1.4-2-2.2c-0.3-0.5-0.6-1.1-0.9-1.3c-0.2-0.2-0.7-0.3-1.1-0.3
			c-0.1,0-0.2,0-0.4,0L26.5,64l0,0l8.4-2H35l4.1,6.9l0.1,0.1L43.6,58L43.6,58L43.6,58z M42.5,57.7c-0.1-0.1-0.3-0.1-0.4-0.2
			c-0.4-0.2-0.7-0.5-1.1-0.8c-0.4-0.4-0.9-0.7-1.3-0.8h-0.1h-0.1c-0.4,0-0.9,0.2-1.4,0.3c-0.6,0.2-1.2,0.4-1.8,0.4
			c-0.1,0-0.1,0-0.2,0c-0.3,0-0.6-0.1-0.8-0.2c-1-0.4-1.5-1.4-2-2.2c-0.3-0.5-0.6-1.1-0.9-1.3c-0.2-0.2-0.6-0.2-1-0.3
			c-0.1,0-0.2,0-0.4,0h0L26.4,64h0.1l8.4-2l0,0l4.2,7v-0.1L43.5,58C43.2,58,42.8,57.8,42.5,57.7z M58,54.9l-0.9-2.4
			c-0.2,0-0.4,0-0.5,0.1c-0.6,0.1-1.2,0.1-1.6,0.3c-0.3,0.2-0.6,0.8-0.9,1.3c-0.4,0.9-1,1.8-2,2.2c-0.9,0.4-2,0.1-2.9-0.2
			c-0.6-0.2-1.2-0.4-1.6-0.3c-0.4,0.1-0.9,0.5-1.3,0.9c-0.2,0.1-0.3,0.3-0.5,0.4l-0.9,2.1l4,9.8l0.3-0.5L53,62l8.5,1.9L58,54.9z
			 M58,54.9l-0.9-2.4c-0.2,0-0.4,0-0.5,0.1c-0.6,0.1-1.2,0.1-1.6,0.3c-0.3,0.2-0.6,0.8-0.9,1.3c-0.4,0.9-1,1.8-2,2.2
			c-0.9,0.4-2,0.1-2.9-0.2c-0.6-0.2-1.2-0.4-1.6-0.3c-0.4,0.1-0.9,0.5-1.3,0.9c-0.2,0.1-0.3,0.3-0.5,0.4l-0.9,2.1l4,9.8l0.3-0.5
			L53,62l8.5,1.9L58,54.9z M42.5,57.7c-0.1-0.1-0.3-0.1-0.4-0.2c-0.4-0.2-0.7-0.5-1.1-0.8c-0.4-0.4-0.9-0.7-1.3-0.8h-0.1h-0.1
			c-0.4,0-0.9,0.2-1.4,0.3c-0.6,0.2-1.2,0.4-1.8,0.4c-0.1,0-0.1,0-0.2,0c-0.3,0-0.6-0.1-0.8-0.2c-1-0.4-1.5-1.4-2-2.2
			c-0.3-0.5-0.6-1.1-0.9-1.3c-0.2-0.2-0.6-0.2-1-0.3c-0.1,0-0.2,0-0.4,0h0L26.4,64h0.1l8.4-2l0,0l4.2,7v-0.1L43.5,58
			C43.2,58,42.8,57.8,42.5,57.7z M42.5,57.7c-0.1-0.1-0.3-0.1-0.4-0.2c-0.4-0.2-0.7-0.5-1.1-0.8c-0.4-0.4-0.9-0.7-1.3-0.8h-0.1h-0.1
			c-0.4,0-0.9,0.2-1.4,0.3c-0.6,0.2-1.2,0.4-1.8,0.4c-0.1,0-0.1,0-0.2,0c-0.3,0-0.6-0.1-0.8-0.2c-1-0.4-1.5-1.4-2-2.2
			c-0.3-0.5-0.6-1.1-0.9-1.3c-0.2-0.2-0.6-0.2-1-0.3c-0.1,0-0.2,0-0.4,0h0L26.4,64h0.1l8.4-2l0,0l4.2,7v-0.1L43.5,58
			C43.2,58,42.8,57.8,42.5,57.7z M58,54.9l-0.9-2.4c-0.2,0-0.4,0-0.5,0.1c-0.6,0.1-1.2,0.1-1.6,0.3c-0.3,0.2-0.6,0.8-0.9,1.3
			c-0.4,0.9-1,1.8-2,2.2c-0.9,0.4-2,0.1-2.9-0.2c-0.6-0.2-1.2-0.4-1.6-0.3c-0.4,0.1-0.9,0.5-1.3,0.9c-0.2,0.1-0.3,0.3-0.5,0.4
			l-0.9,2.1l4,9.8l0.3-0.5L53,62l8.5,1.9L58,54.9z M58,54.9l-0.9-2.4c-0.2,0-0.4,0-0.5,0.1c-0.6,0.1-1.2,0.1-1.6,0.3
			c-0.3,0.2-0.6,0.8-0.9,1.3c-0.4,0.9-1,1.8-2,2.2c-0.9,0.4-2,0.1-2.9-0.2c-0.6-0.2-1.2-0.4-1.6-0.3c-0.4,0.1-0.9,0.5-1.3,0.9
			c-0.2,0.1-0.3,0.3-0.5,0.4l-0.9,2.1l4,9.8l0.3-0.5L53,62l8.5,1.9L58,54.9z M42.5,57.7c-0.1-0.1-0.3-0.1-0.4-0.2
			c-0.4-0.2-0.7-0.5-1.1-0.8c-0.4-0.4-0.9-0.7-1.3-0.8h-0.1h-0.1c-0.4,0-0.9,0.2-1.4,0.3c-0.6,0.2-1.2,0.4-1.8,0.4
			c-0.1,0-0.1,0-0.2,0c-0.3,0-0.6-0.1-0.8-0.2c-1-0.4-1.5-1.4-2-2.2c-0.3-0.5-0.6-1.1-0.9-1.3c-0.2-0.2-0.6-0.2-1-0.3
			c-0.1,0-0.2,0-0.4,0h0L26.4,64h0.1l8.4-2l0,0l4.2,7v-0.1L43.5,58C43.2,58,42.8,57.8,42.5,57.7z M42.5,57.7
			c-0.1-0.1-0.3-0.1-0.4-0.2c-0.4-0.2-0.7-0.5-1.1-0.8c-0.4-0.4-0.9-0.7-1.3-0.8h-0.1h-0.1c-0.4,0-0.9,0.2-1.4,0.3
			c-0.6,0.2-1.2,0.4-1.8,0.4c-0.1,0-0.1,0-0.2,0c-0.3,0-0.6-0.1-0.8-0.2c-1-0.4-1.5-1.4-2-2.2c-0.3-0.5-0.6-1.1-0.9-1.3
			c-0.2-0.2-0.6-0.2-1-0.3c-0.1,0-0.2,0-0.4,0h0L26.4,64h0.1l8.4-2l0,0l4.2,7v-0.1L43.5,58C43.2,58,42.8,57.8,42.5,57.7z M58,54.9
			l-0.9-2.4c-0.2,0-0.4,0-0.5,0.1c-0.6,0.1-1.2,0.1-1.6,0.3c-0.3,0.2-0.6,0.8-0.9,1.3c-0.4,0.9-1,1.8-2,2.2c-0.9,0.4-2,0.1-2.9-0.2
			c-0.6-0.2-1.2-0.4-1.6-0.3c-0.4,0.1-0.9,0.5-1.3,0.9c-0.2,0.1-0.3,0.3-0.5,0.4l-0.9,2.1l4,9.8l0.3-0.5L53,62l8.5,1.9L58,54.9z
			 M58,54.9l-0.9-2.4c-0.2,0-0.4,0-0.5,0.1c-0.6,0.1-1.2,0.1-1.6,0.3c-0.3,0.2-0.6,0.8-0.9,1.3c-0.4,0.9-1,1.8-2,2.2
			c-0.9,0.4-2,0.1-2.9-0.2c-0.6-0.2-1.2-0.4-1.6-0.3c-0.4,0.1-0.9,0.5-1.3,0.9c-0.2,0.1-0.3,0.3-0.5,0.4l-0.9,2.1l4,9.8l0.3-0.5
			L53,62l8.5,1.9L58,54.9z M42.5,57.7c-0.1-0.1-0.3-0.1-0.4-0.2c-0.4-0.2-0.7-0.5-1.1-0.8c-0.4-0.4-0.9-0.7-1.3-0.8h-0.1h-0.1
			c-0.4,0-0.9,0.2-1.4,0.3c-0.6,0.2-1.2,0.4-1.8,0.4c-0.1,0-0.1,0-0.2,0c-0.3,0-0.6-0.1-0.8-0.2c-1-0.4-1.5-1.4-2-2.2
			c-0.3-0.5-0.6-1.1-0.9-1.3c-0.2-0.2-0.6-0.2-1-0.3c-0.1,0-0.2,0-0.4,0h0L26.4,64h0.1l8.4-2l0,0l4.2,7v-0.1L43.5,58
			C43.2,58,42.8,57.8,42.5,57.7z"/>
		<path class="st2" d="M50.7,32.4L50.7,32.4c-0.2-1.2-0.5-1.9-0.9-2.5c0-0.1-0.1-0.1-0.1-0.1c-0.9-1.4-2.1-1.7-3-1.7
			c-2.1,0-4.4,2.1-4.4,8c0,4.9,1.6,7.8,4.3,7.8c1.7,0,4.4-1.1,4.5-7.9C51.1,34.6,50.9,33.4,50.7,32.4z M46.7,42
			c-1.5,0-2.5-2.3-2.5-6s1-6.1,2.6-6.1c2.1,0,2.4,4.2,2.4,6C49.2,37.7,49,42,46.7,42z"/>
		<rect x="36.8" y="28.6" class="st2" width="1.8" height="14.8"/>
	</g>
	<g>
		<g>
			<g>
				<path class="st2" d="M44.4,56l-0.1,0.2l0.2-0.2H44.4z"/>
			</g>
		</g>
		<g>
			<g>
				<g>
					<path class="st2" d="M44.4,56l-0.1,0.2l0.2-0.2H44.4z"/>
					<path class="st2" d="M65.8,36.1c0-1.1-0.7-2-1.3-2.7c-0.4-0.5-0.7-0.9-0.8-1.3c-0.1-0.4,0.1-1,0.3-1.6c0.3-0.9,0.6-1.9,0.2-2.9
						s-1.3-1.5-2.2-1.9c-0.6-0.3-1.1-0.6-1.3-0.9s-0.3-1-0.3-1.6c-0.1-1-0.2-2-1-2.8c-0.7-0.7-1.8-0.8-2.8-0.9
						c-0.6-0.1-1.2-0.1-1.6-0.4c-0.3-0.2-0.6-0.7-0.9-1.3c-0.4-0.9-1-1.8-1.9-2.2c-0.9-0.4-2-0.1-2.9,0.2c-0.6,0.2-1.2,0.4-1.6,0.3
						c-0.3-0.1-0.8-0.5-1.3-0.9c-0.8-0.6-1.6-1.3-2.6-1.3s-1.9,0.7-2.6,1.3c-0.5,0.4-0.9,0.8-1.3,0.9c-0.4,0.1-1-0.1-1.6-0.3
						c-0.9-0.2-1.9-0.6-2.9-0.2c-1,0.4-1.5,1.3-1.9,2.2c-0.3,0.5-0.6,1.1-0.9,1.3c-0.3,0.2-1,0.2-1.6,0.3c-1,0.1-2,0.2-2.8,0.9
						c-0.7,0.8-0.8,1.8-0.9,2.8c-0.1,0.6-0.1,1.3-0.3,1.6c-0.2,0.3-0.7,0.6-1.3,0.9c-0.9,0.4-1.8,1-2.2,2c-0.4,0.9-0.1,2,0.2,2.8
						c0.2,0.6,0.4,1.2,0.3,1.6c-0.1,0.3-0.4,0.8-0.8,1.3c-0.6,0.7-1.3,1.6-1.3,2.7c0,1,0.7,1.9,1.3,2.6c0.4,0.5,0.8,0.9,0.9,1.3
						c0.1,0.4-0.1,1-0.3,1.6c-0.3,0.9-0.6,1.9-0.2,2.9s1.3,1.5,2.2,2c0.5,0.3,1.1,0.6,1.3,0.9c0.2,0.3,0.2,1,0.3,1.6
						c0.1,1,0.2,2,0.9,2.8c0.3,0.3,0.7,0.5,1,0.6l-4.6,11.3c-0.4,0.6-0.3,1.3,0.2,1.8c0.4,0.4,1,0.6,1.5,0.5l7.6-1.7l3.8,6.4
						c0.2,0.3,0.7,0.7,1.3,0.7s1.2-0.4,1.4-1l3.4-8.5l3.4,8.4c0.2,0.6,0.8,1,1.5,1c0.6,0,1-0.3,1.3-0.8l3.7-6.3l7.7,1.7
						c0.6,0.1,1.2-0.1,1.5-0.6c0.3-0.4,0.4-1,0.2-1.6L58.8,52c0.2-0.1,0.4-0.2,0.6-0.4c0.7-0.8,0.8-1.8,0.9-2.8
						c0.1-0.6,0.1-1.2,0.4-1.6c0.2-0.3,0.7-0.6,1.2-0.9c0.9-0.4,1.8-1,2.2-2c0.4-0.9,0.1-1.9-0.2-2.8c-0.2-0.6-0.4-1.2-0.3-1.6
						c0.1-0.3,0.5-0.8,0.8-1.2C65.1,38,65.8,37.2,65.8,36.1z M43.6,58.1L39.2,69L35,62l-8.5,2l4.6-11.4c0.6,0.1,1.2,0.1,1.5,0.3
						s0.6,0.7,0.9,1.3c0.5,0.9,1,1.8,2,2.2c0.9,0.4,2,0.1,2.8-0.2c0.6-0.2,1.2-0.4,1.6-0.3c0.3,0.1,0.8,0.5,1.3,0.8
						c0.7,0.6,1.4,1.2,2.4,1.3h0.1L43.6,58.1z M44.3,56.3l0.1-0.2l0.1,0.1L44.3,56.3z M61.7,63.8l-8.5-1.9l-3.8,6.6L49.1,69l-4-9.8
						l0.9-2.1c0.2-0.2,0.4-0.3,0.5-0.4c0.5-0.4,1-0.8,1.3-0.9c0.4-0.1,1,0.1,1.6,0.3c0.9,0.3,2,0.6,2.9,0.2c1-0.4,1.5-1.3,2-2.2
						c0.3-0.5,0.6-1.1,0.9-1.3c0.3-0.2,1-0.2,1.6-0.3c0.2,0,0.4,0,0.5-0.1l0.9,2.4L61.7,63.8z M63,37.6c-0.5,0.6-1,1.3-1.2,2.1
						c-0.2,0.9,0.1,1.7,0.3,2.5c0.2,0.6,0.4,1.3,0.3,1.6c-0.2,0.4-0.8,0.7-1.4,1c-0.7,0.4-1.5,0.8-1.9,1.5c-0.5,0.7-0.6,1.6-0.6,2.4
						c-0.1,0.7-0.1,1.4-0.4,1.6c-0.2,0.3-1,0.4-1.7,0.4c-0.8,0.1-1.6,0.2-2.4,0.6s-1.1,1.3-1.5,2c-0.3,0.6-0.6,1.2-1,1.3
						c-0.3,0.1-1-0.1-1.6-0.2c-0.8-0.2-1.6-0.5-2.5-0.3c-0.8,0.2-1.5,0.7-2.1,1.2c-0.5,0.4-1.1,0.9-1.5,0.9s-1-0.4-1.5-0.9
						c-0.6-0.5-1.3-1.1-2.1-1.2c-0.2,0-0.4-0.1-0.6-0.1c-0.7,0-1.3,0.2-1.9,0.4c-0.6,0.2-1.3,0.4-1.6,0.2c-0.4-0.2-0.7-0.8-1-1.4
						c-0.4-0.7-0.8-1.5-1.5-1.9c-0.7-0.5-1.6-0.6-2.4-0.7c-0.7-0.1-1.4-0.1-1.6-0.4c-0.3-0.3-0.4-1-0.4-1.7
						c-0.1-0.8-0.2-1.7-0.6-2.4c-0.5-0.7-1.3-1.1-2-1.5c-0.6-0.3-1.2-0.7-1.3-1c-0.1-0.3,0.1-1,0.2-1.6c0.2-0.8,0.5-1.7,0.3-2.5
						s-0.7-1.5-1.2-2.1c-0.4-0.5-0.9-1.1-0.9-1.5s0.5-1,0.9-1.5c0.5-0.6,1.1-1.3,1.2-2.1c0.2-0.9-0.1-1.7-0.3-2.5
						c-0.2-0.6-0.4-1.3-0.2-1.6c0.1-0.4,0.8-0.7,1.4-1c0.7-0.4,1.5-0.8,1.9-1.5c0.5-0.7,0.6-1.6,0.7-2.4c0.1-0.7,0.1-1.4,0.4-1.6
						c0.3-0.3,1-0.4,1.7-0.4c0.8-0.1,1.7-0.2,2.4-0.6c0.7-0.5,1.1-1.3,1.5-2c0.3-0.6,0.6-1.2,1-1.3c0.3-0.1,1,0.1,1.6,0.2
						c0.8,0.2,1.7,0.5,2.5,0.3s1.5-0.7,2.1-1.2c0.5-0.4,1.1-0.9,1.5-0.9s1,0.5,1.5,0.9c0.7,0.5,1.3,1.1,2.1,1.2
						c0.9,0.2,1.7-0.1,2.5-0.3c0.6-0.2,1.3-0.4,1.6-0.2c0.4,0.2,0.7,0.8,1,1.4c0.4,0.7,0.8,1.5,1.5,1.9c0.7,0.5,1.6,0.6,2.4,0.7
						c0.7,0.1,1.4,0.1,1.6,0.4c0.3,0.3,0.4,1,0.4,1.7c0.1,0.8,0.2,1.7,0.6,2.4c0.5,0.7,1.3,1.1,2,1.5c0.6,0.3,1.2,0.6,1.3,1
						c0.1,0.3-0.1,1-0.3,1.6c-0.2,0.8-0.5,1.7-0.3,2.5s0.7,1.4,1.2,2c0.4,0.6,0.9,1.1,0.9,1.5C63.9,36.5,63.5,37.1,63,37.6z"/>
				</g>
			</g>
		</g>
		<g>
			<g>
				<path class="st2" d="M43.8,20.9c-0.6,0-1.2,0-1.8,0.1l0,0c-7.5,0.9-13.4,7.3-13.4,15.1c0,8.4,6.8,15.2,15.2,15.2
					S59,44.5,59,36.1S52.2,20.9,43.8,20.9z M43.8,49.5c-7.4,0-13.4-6-13.4-13.4s6-13.4,13.4-13.4s13.4,6,13.4,13.4
					C57.2,43.5,51.2,49.5,43.8,49.5z"/>
			</g>
		</g>
	</g>
</g>
<rect class="st1" width="32" height="32"/>
</svg>
