<svg width="72" height="72" viewBox="0 0 72 72" fill="none" xmlns="http://www.w3.org/2000/svg">
<circle cx="36" cy="36" r="36" fill="white"/>
<g style="mix-blend-mode:multiply">
<ellipse cx="35.8369" cy="36" rx="33.0676" ry="33.2308" fill="#F6F6F6"/>
</g>
<mask id="mask0_518_143223" style="mask-type:luminance" maskUnits="userSpaceOnUse" x="2" y="2" width="67" height="68">
<g style="mix-blend-mode:multiply">
<ellipse cx="35.8369" cy="36" rx="33.0676" ry="33.2308" fill="white"/>
<ellipse cx="35.8369" cy="36" rx="33.0676" ry="33.2308" stroke="white"/>
</g>
</mask>
<g mask="url(#mask0_518_143223)">
<ellipse cx="35.9648" cy="44.3077" rx="35.4128" ry="26.2012" fill="#F6DB86"/>
<ellipse cx="36.1107" cy="45.1405" rx="13.5507" ry="21.0525" fill="#F5F8FF"/>
</g>
<path fill-rule="evenodd" clip-rule="evenodd" d="M41.831 23.4654C42.131 23.0848 42.6603 22.9767 43.0843 23.2095L43.1074 23.2195C47.1181 25.416 49.8631 29.3848 50.514 33.9282C51.1648 38.4715 49.6454 43.0572 46.4142 46.3016C45.945 46.7601 45.4456 47.1864 44.9195 47.5776C45.0083 50.9684 46.0243 54.2691 47.8559 57.1182C48.0973 57.414 48.149 57.8225 47.9889 58.1695C47.8288 58.5166 47.4853 58.741 47.1047 58.7471C46.7241 58.7532 46.3736 58.5399 46.2026 58.1982C44.3915 55.3819 43.2968 52.1616 43.0148 48.8205C42.6158 49.0353 42.2058 49.2325 41.7847 49.412C37.7422 51.1201 33.1479 50.9003 29.2852 48.8138C29.0032 52.155 27.9085 55.3753 26.0975 58.1915C25.9265 58.5333 25.576 58.7466 25.1954 58.7405C24.8148 58.7344 24.4712 58.51 24.3111 58.1629C24.1511 57.8158 24.2027 57.4073 24.4441 57.1115C26.2758 54.2625 27.2917 50.9617 27.3805 47.571C25.9425 46.4676 24.7223 45.1039 23.7827 43.5501C22.0212 45.1134 20.3642 46.7919 18.8226 48.5745C17.0916 50.5748 15.536 52.7217 14.1733 54.9914C13.4258 56.2387 12.7544 57.5304 12.1628 58.8595C11.6668 58.3322 11.1873 57.7894 10.7244 57.2312C11.2415 56.1452 11.8087 55.084 12.424 54.051C13.8459 51.6705 15.4713 49.419 17.2817 47.3217C19.1688 45.1298 21.2218 43.0878 23.4223 41.2139L23.4554 41.1873C24.0462 40.6822 24.6491 40.1871 25.2642 39.7019C28.852 36.864 34.0139 32.544 38.2465 27.8917C40.7762 25.1203 41.7913 23.5252 41.7913 23.5252L41.8079 23.4986L41.831 23.4654ZM43.4249 46.2283C43.9863 45.8237 44.5139 45.3736 45.0022 44.8825L44.9956 44.9024C47.6737 42.2109 48.9933 38.4444 48.5839 34.6604C48.1745 30.8764 46.0803 27.4829 42.8892 25.4325C41.9074 26.7485 40.8578 28.0119 39.7445 29.2175C37.3537 31.8461 33.1078 36.0763 26.4612 41.3202C26.071 41.6303 25.6864 41.9427 25.3072 42.2573C26.2154 43.8439 27.4566 45.2126 28.9446 46.2682C29.1188 46.3923 29.2962 46.5119 29.477 46.6271C33.7395 49.33 39.1997 49.199 43.329 46.2948L43.4249 46.2283Z" fill="#0E153F"/>
<path fill-rule="evenodd" clip-rule="evenodd" d="M49.182 22.9105C52.6472 26.3957 56.5357 29.4281 60.7556 31.936C63.464 33.5436 66.2985 34.9262 69.2308 36.0699C69.2286 36.7766 69.2055 37.4789 69.1614 38.1768C65.8981 36.9479 62.7479 35.4346 59.7471 33.654C55.3861 31.0607 51.3676 27.9256 47.7865 24.3228C44.7061 21.2219 40.525 19.4794 36.1649 19.4794C31.8048 19.4794 27.6237 21.2219 24.5433 24.3228C20.9612 27.9259 16.9416 31.061 12.5795 33.654C9.5786 35.4346 6.42848 36.9479 3.16515 38.1768C3.11885 37.4811 3.0957 36.7788 3.0957 36.0699C6.02468 34.9257 8.85584 33.5431 11.561 31.936C15.7809 29.4281 19.6694 26.3957 23.1346 22.9105C26.5871 19.4362 31.2724 17.484 36.1583 17.484C41.0442 17.484 45.7295 19.4362 49.182 22.9105ZM53.2492 44.0219C54.5701 45.8068 55.9875 47.5175 57.4951 49.1461C59.3364 51.1666 61.32 53.0512 63.4307 54.7854C63.0559 55.3348 62.6646 55.872 62.2568 56.3971C61.7652 56.0005 61.2725 55.5862 60.7787 55.1542C59.1031 53.6835 57.5091 52.1215 56.0037 50.4754C54.4505 48.7952 52.9922 47.029 51.6355 45.185C51.3159 44.7372 51.4181 44.1138 51.8637 43.7926C52.3093 43.4715 52.9296 43.5741 53.2492 44.0219Z" fill="#0E153F"/>
<path fill-rule="evenodd" clip-rule="evenodd" d="M36.1633 44.0852C35.1571 44.0852 34.3413 43.2654 34.3413 42.2541C34.3413 41.2429 35.1571 40.4231 36.1633 40.4231C37.1696 40.4231 37.9854 41.2429 37.9854 42.2541C37.9835 43.2646 37.1689 44.0833 36.1633 44.0852Z" fill="#0E153F"/>
<path d="M44.0598 33.9165C42.4553 35.5255 39.8576 35.5255 38.2531 33.9165C38.0009 33.6648 37.6342 33.5675 37.2912 33.6612C36.9482 33.7548 36.6809 34.0253 36.5902 34.3706C36.4994 34.716 36.5988 35.0838 36.851 35.3355C39.2271 37.7167 43.0726 37.7167 45.4486 35.3355C45.8128 34.9427 45.8021 34.3306 45.4243 33.9509C45.0465 33.5713 44.4374 33.5605 44.0465 33.9265L44.0598 33.9165Z" fill="#0E153F"/>
<path fill-rule="evenodd" clip-rule="evenodd" d="M39.8008 11.9079H41.4939V13.6093C41.4939 14.1599 41.9381 14.6062 42.4859 14.6062C43.0338 14.6062 43.478 14.1599 43.478 13.6093V11.9079H45.171C45.7189 11.9079 46.163 11.4615 46.163 10.9109C46.163 10.3604 45.7189 9.91402 45.171 9.91402H43.4713V8.21261C43.4713 7.66202 43.0272 7.21568 42.4793 7.21568C41.9314 7.21568 41.4873 7.66202 41.4873 8.21261V9.91402H39.8008C39.4464 9.91402 39.1189 10.104 38.9417 10.4125C38.7645 10.7209 38.7645 11.101 38.9417 11.4094C39.1189 11.7179 39.4464 11.9079 39.8008 11.9079ZM9.83512 26.8281C10.2224 27.2169 10.8499 27.2169 11.2372 26.8281L12.1895 25.8711L13.1419 26.8281C13.5327 27.1942 14.1419 27.1834 14.5196 26.8037C14.8974 26.4241 14.9082 25.812 14.5439 25.4192L13.5916 24.4621L14.5439 23.5051C14.9082 23.1123 14.8974 22.5002 14.5196 22.1205C14.1419 21.7409 13.5327 21.7301 13.1419 22.0961L12.1895 23.0398L11.2372 22.0828C10.8463 21.7168 10.2372 21.7276 9.85943 22.1072C9.48165 22.4869 9.4709 23.099 9.83512 23.4918L10.7875 24.4488L9.83512 25.4059C9.64527 25.5933 9.53833 25.8495 9.53833 26.117C9.53833 26.3845 9.64527 26.6407 9.83512 26.8281ZM25.8739 13.8489C25.6087 14.4869 24.9869 14.9013 24.2989 14.8986C23.3627 14.895 22.6058 14.1313 22.6058 13.1906C22.6058 12.4991 23.0206 11.8759 23.6566 11.6119C24.2925 11.3479 25.0241 11.4953 25.5097 11.9852C25.9952 12.4751 26.139 13.2108 25.8739 13.8489ZM24.2988 12.905C24.4559 12.905 24.5832 13.033 24.5832 13.1908C24.5832 13.3486 24.4559 13.4766 24.2988 13.4766C24.1418 13.4766 24.0145 13.3486 24.0145 13.1908C24.0162 13.0337 24.1425 12.9068 24.2988 12.905ZM61.1955 22.0102C61.1955 23.6472 59.8749 24.9743 58.2459 24.9743C56.6176 24.9725 55.2981 23.6465 55.2963 22.0102C55.2963 20.3731 56.6169 19.046 58.2459 19.046C59.8749 19.046 61.1955 20.3731 61.1955 22.0102ZM58.2461 21.0429C58.7794 21.0429 59.2117 21.4773 59.2117 22.0132C59.2117 22.5491 58.7794 22.9835 58.2461 22.9835C57.7128 22.9835 57.2805 22.5491 57.2805 22.0132C57.2823 21.4786 57.7141 21.0462 58.2461 21.0462V21.0429ZM21.6137 36.0003C21.4421 36.1266 21.2346 36.1942 21.0218 36.193L21.0152 36.203C20.5888 36.2039 20.2095 35.931 20.0731 35.525C19.9367 35.119 20.0737 34.6708 20.4134 34.4118C20.4663 34.3719 25.8695 30.2214 29.5069 26.2337C29.8777 25.8281 30.5054 25.8014 30.909 26.1739C31.3126 26.5465 31.3393 27.1773 30.9685 27.5829C27.2154 31.6803 21.8419 35.8275 21.6137 36.0003Z" fill="#0E153F"/>
<path d="M49.2579 59.0658C41.0178 63.2411 31.2953 63.2411 23.0552 59.0658C22.3014 60.2401 21.4449 61.3444 20.4957 62.3656L18.7498 64.2464C29.4199 70.8813 42.9063 70.8813 53.5765 64.2464L51.8206 62.3556C50.8708 61.3377 50.0131 60.2367 49.2579 59.0658Z" fill="#899AC7"/>
</svg>
