<svg width="48" height="48" viewBox="0 0 48 48" fill="none" xmlns="http://www.w3.org/2000/svg">
<path d="M33.4363 34.6363C26.1818 34.6363 18.9818 27.4909 19.7454 19.9091C19.9091 18.0545 20.1818 16.1454 21 14.5636C21.7636 13.0909 22.8 11.9454 22.8 11.9454C22.8 11.9454 11.6182 12.6 11.6182 24.2727C11.6182 31.5272 16.4182 39.2182 23.6727 39.2182C30.3273 39.2182 33.4363 34.6363 33.4363 34.6363ZM32.4 9.92725C32.3454 9.92725 32.2363 9.92725 32.1818 9.98179C32.1273 10.0363 32.0727 10.1454 32.0727 10.2545C32.0727 12.0545 29.6182 14.5091 27.8182 14.5091C27.7091 14.5091 27.6545 14.5636 27.6 14.6182C27.5454 14.6727 27.4909 14.8363 27.4909 14.8363C27.4909 14.8363 27.4909 15 27.5454 15.0545C27.6 15.1091 27.7091 15.1636 27.8182 15.1636C29.6182 15.1636 32.0727 17.6182 32.0727 19.4182C32.0727 19.4727 32.1273 19.5272 32.1818 19.5818C32.2363 19.6363 32.4 19.6909 32.4 19.6909C32.4 19.6909 32.5091 19.6909 32.5636 19.6363C32.6182 19.5818 32.6727 19.5272 32.6727 19.4182C32.6727 17.6182 35.1273 15.1636 36.9273 15.1636C37.2545 15.0545 37.2545 14.8363 37.2545 14.8363V14.7818C37.2545 14.7818 37.3636 14.7818 37.2545 14.7818C37.2545 14.6182 37.0909 14.4545 36.9273 14.4545C35.1273 14.4545 32.6727 12 32.6727 10.2C32.6727 10.1454 32.6182 10.0363 32.5636 9.98179C32.6182 9.98179 32.5091 9.92725 32.4 9.92725Z" fill="#D7ECF7"/>
<path d="M25.7455 37.6363C18.2182 37.6363 12.1091 31.5272 12.1091 23.9999C12.1091 11.9999 25.3637 10.4181 25.5273 10.3635C25.7455 10.3635 25.9091 10.4181 26.0182 10.6363C26.1273 10.7999 26.0728 11.0181 25.9637 11.1817C23.8909 13.4726 22.8 16.4726 22.8 19.5817C22.8 26.5635 28.4728 32.2363 35.4546 32.2363C35.6182 32.2363 35.7819 32.3453 35.891 32.509C36 32.6726 35.9455 32.8908 35.8364 32.9999C35.6728 33.1635 32.5637 37.6363 25.7455 37.6363ZM24.3819 11.5635C23.1819 11.8363 21.2182 12.3817 19.3091 13.4726C15.1637 15.8181 13.0909 19.3635 13.0909 23.9999C13.0909 30.9817 18.7637 36.6544 25.7455 36.6544C30.3819 36.6544 33.1637 34.3635 34.3637 33.1635C27.3273 32.6181 21.7637 26.7272 21.7637 19.5817C21.7637 16.6908 22.6909 13.909 24.3819 11.5635Z" fill="#1E306E"/>
</svg>
