<svg width="80" height="80" viewBox="0 0 80 80" fill="none" xmlns="http://www.w3.org/2000/svg">
<path fill-rule="evenodd" clip-rule="evenodd" d="M9.02637 40.1709L11.5364 32.5234L31.5014 41.7134L70.6339 41.8659L69.7664 49.5134L29.8439 49.9234L9.02637 40.1709Z" fill="#D7ECF7"/>
<path fill-rule="evenodd" clip-rule="evenodd" d="M68.4992 49.008H68.5267C68.7717 49.008 69.0142 48.938 69.2092 48.788C69.4542 48.5605 69.6342 48.183 69.6542 47.7705L70.0192 43.9555C70.1442 43.1255 69.9567 42.3505 69.4917 41.7155L64.5192 34.298C63.9142 33.543 62.9417 33.078 61.8992 33.078H61.8967H34.3892C33.0717 33.0105 31.8317 32.733 30.6592 32.248L19.9567 26.6355C19.2142 26.203 18.3142 26.3105 17.7267 26.8805L11.9642 33.423L10.0592 38.3105C9.92166 38.628 9.90666 38.953 10.0067 39.2505C10.0917 39.4605 10.2942 39.6655 10.5467 39.7655L27.9567 48.258C29.0017 48.728 30.1392 48.9855 31.3167 49.008H68.4992ZM68.5567 50.838H68.4867H31.2967C29.8542 50.808 28.4767 50.498 27.1792 49.9155L9.80666 41.438C9.15166 41.178 8.57666 40.6005 8.28916 39.878C8.02916 39.1005 8.06166 38.3105 8.36916 37.608L10.5817 32.223L16.4042 25.618C17.6267 24.4255 19.4317 24.2055 20.8442 25.038L31.4317 30.593C32.3367 30.9605 33.3742 31.1955 34.4367 31.248H61.8967H61.9017C63.4992 31.248 64.9917 31.9655 65.9942 33.218L70.9917 40.668C71.7217 41.663 72.0267 42.923 71.8342 44.1805L71.4792 47.9055C71.4367 48.763 71.0467 49.588 70.3817 50.1905C69.8217 50.6255 69.1942 50.838 68.5567 50.838Z" fill="#212B64"/>
<path fill-rule="evenodd" clip-rule="evenodd" d="M65.7437 42.7797H32.8887C31.8112 42.7797 30.7287 42.5347 29.7537 42.0722L15.4087 35.2572C14.9512 35.0397 14.7562 34.4947 14.9737 34.0372C15.1887 33.5822 15.7312 33.3872 16.1937 33.6047L30.5387 40.4197C31.2687 40.7647 32.0812 40.9497 32.8887 40.9497H65.7437C66.2487 40.9497 66.6587 41.3597 66.6587 41.8647C66.6587 42.3697 66.2487 42.7797 65.7437 42.7797Z" fill="#212B64"/>
<path fill-rule="evenodd" clip-rule="evenodd" d="M17.1025 41.2534L18.5425 38.3359L20.865 39.4084L19.425 42.3259L17.1025 41.2534Z" fill="#212B64"/>
<path fill-rule="evenodd" clip-rule="evenodd" d="M14.0693 48.7309C13.9393 48.7309 13.8093 48.7034 13.6843 48.6459C13.2268 48.4334 13.0268 47.8884 13.2393 47.4309L18.1893 36.7484C18.4043 36.2859 18.9468 36.0934 19.4043 36.3034C19.8643 36.5159 20.0618 37.0609 19.8518 37.5184L14.8993 48.2009C14.7443 48.5334 14.4143 48.7309 14.0693 48.7309Z" fill="#212B64"/>
<path fill-rule="evenodd" clip-rule="evenodd" d="M59.9433 55.4728C59.4383 55.4728 59.0283 55.0628 59.0283 54.5578V49.9228C59.0283 49.4178 59.4383 49.0078 59.9433 49.0078C60.4483 49.0078 60.8583 49.4178 60.8583 49.9228V54.5578C60.8583 55.0628 60.4483 55.4728 59.9433 55.4728Z" fill="#212B64"/>
<path fill-rule="evenodd" clip-rule="evenodd" d="M14.5439 55.4703C14.0389 55.4703 13.6289 55.0603 13.6289 54.5553V47.4228C13.6289 46.9178 14.0389 46.5078 14.5439 46.5078C15.0489 46.5078 15.4589 46.9178 15.4589 47.4228V54.5553C15.4589 55.0603 15.0489 55.4703 14.5439 55.4703Z" fill="#212B64"/>
<path fill-rule="evenodd" clip-rule="evenodd" d="M24.9558 48.7284H12.1333C11.6258 48.7284 11.2158 48.3184 11.2158 47.8134C11.2158 47.3084 11.6258 46.8984 12.1333 46.8984H24.9558C25.4608 46.8984 25.8708 47.3084 25.8708 47.8134C25.8708 48.3184 25.4608 48.7284 24.9558 48.7284Z" fill="#212B64"/>
</svg>
